<svg xmlns="http://www.w3.org/2000/svg" xmlns:xlink="http://www.w3.org/1999/xlink" width="66" height="66" viewBox="0 0 66 66"><defs><style>.a{fill:#3b5998;}.b{fill:#fff;}.c{filter:url(#a);}</style><filter id="a" x="0" y="0" width="66" height="66" filterUnits="userSpaceOnUse"><feOffset dy="3" input="SourceAlpha"/><feGaussianBlur stdDeviation="3" result="b"/><feFlood flood-opacity="0.161"/><feComposite operator="in" in2="b"/><feComposite in="SourceGraphic"/></filter></defs><g transform="translate(9 6)"><g class="c" transform="matrix(1, 0, 0, 1, -9, -6)"><path class="a" d="M0,24A24,24,0,1,1,24,48,24,24,0,0,1,0,24Z" transform="translate(9 6)"/></g><path class="b" d="M26.5,38.111V25.054h3.6l.478-4.5H26.5l.006-2.252c0-1.174.111-1.8,1.8-1.8h2.253V12h-3.6c-4.33,0-5.854,2.183-5.854,5.854v2.7H18.4v4.5h2.7V38.111Z"/></g></svg>