<svg xmlns="http://www.w3.org/2000/svg" xmlns:xlink="http://www.w3.org/1999/xlink" width="66" height="66" viewBox="0 0 66 66"><defs><style>.a{fill:#0077b5;}.b{fill:#fff;fill-rule:evenodd;}.c{filter:url(#a);}</style><filter id="a" x="0" y="0" width="66" height="66" filterUnits="userSpaceOnUse"><feOffset dy="3" input="SourceAlpha"/><feGaussianBlur stdDeviation="3" result="b"/><feFlood flood-opacity="0.161"/><feComposite operator="in" in2="b"/><feComposite in="SourceGraphic"/></filter></defs><g transform="translate(9 6)"><g class="c" transform="matrix(1, 0, 0, 1, -9, -6)"><path class="a" d="M0,24A24,24,0,1,1,24,48,24,24,0,0,1,0,24Z" transform="translate(9 6)"/></g><path class="b" d="M17.319,14.823a2.837,2.837,0,0,1-3.078,2.825h-.035A2.832,2.832,0,1,1,14.277,12,2.825,2.825,0,0,1,17.319,14.823Zm-.358,5.055V36.22H11.522V19.878ZM36.575,36.22V26.85c0-5.019-2.683-7.356-6.262-7.356a5.4,5.4,0,0,0-4.9,2.7V19.878h-5.44c.072,1.533,0,16.342,0,16.342h5.44V27.093a3.715,3.715,0,0,1,.179-1.325,2.976,2.976,0,0,1,2.791-1.986c1.969,0,2.756,1.5,2.756,3.694V36.22Z"/></g></svg>