<svg xmlns="http://www.w3.org/2000/svg" xmlns:xlink="http://www.w3.org/1999/xlink" width="66" height="66" viewBox="0 0 66 66"><defs><style>.a{fill:#12100e;fill-rule:evenodd;}.b{fill:#fff;}.c{filter:url(#a);}</style><filter id="a" x="0" y="0" width="66" height="66" filterUnits="userSpaceOnUse"><feOffset dy="3" input="SourceAlpha"/><feGaussianBlur stdDeviation="3" result="b"/><feFlood flood-opacity="0.161"/><feComposite operator="in" in2="b"/><feComposite in="SourceGraphic"/></filter></defs><g transform="translate(9 6)"><g class="c" transform="matrix(1, 0, 0, 1, -9, -6)"><path class="a" d="M24,48A24,24,0,1,0,0,24,24,24,0,0,0,24,48Z" transform="translate(9 6)"/></g><path class="b" d="M11.795,16.3a1.285,1.285,0,0,0-.4-1.07L8.4,11.55V11h9.277l7.171,16.1,6.3-16.1H40v.55l-2.555,2.507a.773.773,0,0,0-.284.734V33.209a.773.773,0,0,0,.284.734L39.94,36.45V37H27.391v-.55l2.585-2.568c.254-.26.254-.336.254-.734V18.26L23.044,36.939h-.971L13.707,18.26V30.779a1.753,1.753,0,0,0,.463,1.437l3.361,4.173v.55H8v-.55l3.361-4.173a1.691,1.691,0,0,0,.433-1.437Z"/></g></svg>