<svg height="66" viewBox="0 0 66 66" width="66" xmlns="http://www.w3.org/2000/svg" xmlns:xlink="http://www.w3.org/1999/xlink"><filter id="a" filterUnits="userSpaceOnUse" height="66" width="66" x="0" y="0"><feOffset dy="3"/><feGaussianBlur result="b" stdDeviation="3"/><feFlood flood-opacity=".161"/><feComposite in2="b" operator="in"/><feComposite in="SourceGraphic"/></filter><g transform="translate(9 6)"><g filter="url(#a)" transform="translate(-9 -6)"><path d="m0 24a24 24 0 1 1 24 24 24 24 0 0 1 -24-24z" fill="#f00" transform="translate(9 6)"/></g><path d="m36.265 18.073a3.25 3.25 0 0 0 -2.265-2.324c-2-.549-10-.549-10-.549s-8.005 0-10 .549a3.25 3.25 0 0 0 -2.263 2.324 35.111 35.111 0 0 0 -.537 6.327 35.112 35.112 0 0 0 .535 6.327 3.25 3.25 0 0 0 2.265 2.324c2 .549 10 .549 10 .549s8.005 0 10-.549a3.25 3.25 0 0 0 2.263-2.324 35.1 35.1 0 0 0 .537-6.327 35.1 35.1 0 0 0 -.535-6.327z" fill="#fff"/><path d="m21.6 28.8v-8l6.4 4z" fill="#f00"/></g></svg>